<svg t="1581762247232" class="icon" viewBox="0 0 1024 1024" version="1.1" xmlns="http://www.w3.org/2000/svg" p-id="820" width="200" height="200"><path d="M975.33285313 123.19941115C950.41143795 135.12987585 945.83809314 121.67496287 917.96720197 132.67750254 890.09631081 143.68004222 860.60155083 161.11177677 860.60155083 161.11177677 860.60155083 161.11177677 942.39151445 227.49155682 975.33285313 341.16237337 1008.27419181 454.83318992 998.82924057 499.30731116 989.68255095 544.87505831 980.53586135 590.47594565 942.8223368 643.89791541 942.8223368 643.89791541 942.8223368 643.89791541 776.59119515 601.90930768 583.31766683 412.21491877 390.07727869 222.55367003 379.43928098 47.37467986 379.43928098 47.37467986 379.43928098 47.37467986 449.59704153 15.75894837 525.95201568 14.23450011 690.62556887 10.92048213 822.35778338 132.67750254 822.35778338 132.67750254 822.35778338 132.67750254 915.68052958 57.91325701 951.43878352 61.62495715 987.19703747 65.30351711 1006.4846221 72.99203881 1008.80443468 85.32018569 1011.12424726 97.61519237 1000.2542683 111.3020866 975.33285313 123.19941115ZM843.40179753 677.03809517C843.40179753 677.03809517 781.46280158 761.67811426 578.54548094 886.02006869 382.45503734 1006.21950066 410.35906869 984.84408471 291.71722518 1004.46307113 182.28835163 1022.59074946 133.96996955 985.54002849 133.96996955 985.54002849 133.96996955 985.54002849 132.74378291 1000.02228704 110.07589996 1004.46307113 87.37487682 1008.93699539 41.64142877 977.68580589 47.90492274 957.10575426 54.16841671 936.52570263 67.02680645 928.67148003 67.02680645 928.67148003 67.02680645 928.67148003-36.43683474 884.52876061 47.90492274 601.74360677 132.24668021 318.95845294 313.15892148 146.79521911 313.15892148 146.79521911 313.15892148 146.79521911 336.75472947 269.11562259 512 445.0568369 687.24527053 620.99805121 843.40179753 677.03809517 843.40179753 677.03809517ZM243.89594579 464.34442151C204.98937477 438.79334292 131.31875518 579.47340597 100.498388 687.04642946 69.67802083 794.58631276 72.16353431 928.50577915 138.74215543 914.45434292 179.80283815 905.804756 146.33125661 850.06297366 172.21373699 710.70851779 186.33145357 634.58552491 237.79815273 554.08802829 248.70127186 535.43010708 259.57125083 516.73904571 270.70635122 481.90871678 243.89594579 464.34442151Z" fill="#ffffff" p-id="821"></path></svg>